<?xml version="1.0" encoding="utf-8"?>
<!-- Generator: Adobe Illustrator 12.0.0, SVG Export Plug-In  -->
<!DOCTYPE svg PUBLIC "-//W3C//DTD SVG 1.1//EN" "http://www.w3.org/Graphics/SVG/1.1/DTD/svg11.dtd" [
	<!ENTITY ns_flows "http://ns.adobe.com/Flows/1.0/">
	<!ENTITY ns_svg "http://www.w3.org/2000/svg">
	<!ENTITY ns_xlink "http://www.w3.org/1999/xlink">
]>
<svg  version="1.1" xmlns="&ns_svg;" xmlns:xlink="&ns_xlink;" xmlns:a="http://ns.adobe.com/AdobeSVGViewerExtensions/3.0/"
	 width="312" height="312" viewBox="0.112 -21.173 312 312" enable-background="new 0.112 -21.173 312 312" xml:space="preserve">
<defs>
</defs>
<g id="XMLID_4_">
	<g>
		<path fill="#FFFFFF" d="M200.611,151.327c4,3.9,3.2,9.6-1.6,12.1c-8.101,4.101-15.4-6.399-8.5-12.3
			C194.012,148.126,197.611,148.227,200.611,151.327z"/>
		<path fill="#FFFFFF" d="M106.411,161.626c2.2,1.9,2.2,7,0,9.4c-2,2.2-7,2.3-9.5,0.1c-1.8-1.6-2.4-6.8-1-9c1-1.6,5.4-3.2,7.2-2.5
			C103.911,159.926,105.411,160.827,106.411,161.626z"/>
		<path fill="#167A45" d="M36.611,177.327c9.8,29.3,31.1,52.6,60.6,66.4c35.9,16.8,83.8,16.199,119.3-1.5
			c27.3-13.7,48.6-37.2,57.6-63.801c9.7-28.399,7.6-56.3-6.2-84.1c-18.6-37.2-52-65.7-89.8-76.6c-6.3-1.9-28.4-3.3-35.5-2.3
			c-46.1,6.4-85,37.4-102.9,82.1c-6,15-7.7,23.1-8.3,39.8C30.812,155.027,31.812,163.227,36.611,177.327z M310.111,58.327
			c3.1,9.4,2.6,21.6-1.3,29.9c-3.601,7.9-8.7,13.9-15.4,18.4c-4.399,2.9-5.3,4-4.8,5.6c6.3,21.4,5.6,46.7-1.7,68.9
			c-15,45.3-54.3,77.101-106.3,86.101c-11.7,2.1-38.1,2.1-49.5,0.1c-17.9-3.1-30-7-43.7-14c-34.5-17.8-57.3-46.2-66.4-83
			c-1.9-7.7-2.3-11.7-2.3-27.5c0-13.9,0.5-20.4,1.8-26c1.6-7.1,1.6-7.6,0-8.5c-3.9-2.2-10.9-9.3-13.9-14c-5.2-8.1-6.7-14.2-6.3-24.8
			c0.3-8,0.7-10.1,3.6-15.9c8.2-16.7,27.1-27,43.9-23.9c3.6,0.7,8.6,2.1,11,3.2l4.4,2l6.2-5.4c18.1-15.9,39.7-25.1,66.7-28.7
			c3.6-0.5,13.5-0.7,22-0.5c21.5,0.4,36.6,4.1,53.5,12.8c8.3,4.3,24.9,16.2,29.8,21.5l2.9,3l6.2-3.3c3.5-1.8,9.5-3.8,13.5-4.6
			c6.3-1.1,8.1-1,14.399,0.5C293.911,33.827,305.312,44.027,310.111,58.327z"/>
		<path fill="#FFFFFF" d="M184.111,169.126c11.5,10.3,28.4,10.4,39.9,0.101c7.1-6.4,9.5-12,9.899-23.4
			c0.601-15.8-2.3-24.7-10.3-31.8c-5.5-4.8-12.1-7-23.3-7.8c-6.601-0.5-8.3-0.2-12,1.7c-5,2.5-8.2,6.9-11.3,15.4
			c-1.9,5-2.2,8.2-2.301,19.5C174.611,158.626,175.611,161.527,184.111,169.126z M142.611,15.427c7.1-1,29.2,0.4,35.5,2.3
			c37.8,10.9,71.2,39.4,89.8,76.6c13.8,27.8,15.9,55.7,6.2,84.1c-9,26.601-30.3,50.101-57.6,63.801
			c-35.5,17.699-83.4,18.3-119.3,1.5c-29.5-13.801-50.8-37.101-60.6-66.4c-4.8-14.1-5.8-22.3-5.2-40c0.6-16.7,2.3-24.8,8.3-39.8
			C57.611,52.827,96.511,21.827,142.611,15.427z M149.111,198.327c0,2.5,7.8,10.2,12.8,12.6c5.5,2.601,15,3,20.3,0.9
			c7.2-2.8,15.9-11.7,15.9-16.3c0-2.5-3.6-5.7-6.4-5.7c-1.699,0-3.399,1.2-5.199,3.6c-3.2,4.2-9.101,7.4-13.4,7.4
			c-1.7,0-5-1-7.3-2.2l-4.2-2.1l2.9-0.8c4.199-1.2,6.1-3.301,8.199-9.5l1.9-5.601l-2.4-1.899c-2.1-1.7-4.1-1.9-18.5-1.9
			c-13,0-16.6,0.3-18.4,1.6c-2.8,1.9-2.8,3.101,0.4,9.9c3.1,6.4,5.5,8.5,10.1,8.5C148.111,196.827,149.111,197.327,149.111,198.327z
			 M69.611,178.626c6.1,6.7,12.1,9.5,21,9.601c11.1,0.1,20.2-4.801,26-13.9c4.2-6.6,5.4-13.1,4.3-24.9
			c-1.2-14.8-6.7-25.899-14.5-29.899c-4.3-2.3-15.2-2.1-22.6,0.3c-15.4,4.9-22.9,16-22.9,33.5
			C60.911,164.527,63.312,171.626,69.611,178.626z"/>
		<path fill="#167A45" d="M188.312,107.927c3.7-1.9,5.399-2.2,12-1.7c11.2,0.8,17.8,3,23.3,7.8c8,7.1,10.9,16,10.3,31.8
			c-0.399,11.4-2.8,17-9.899,23.4c-11.5,10.3-28.4,10.199-39.9-0.101c-8.5-7.6-9.5-10.5-9.4-26.3c0.101-11.3,0.4-14.5,2.301-19.5
			C180.111,114.827,183.312,110.427,188.312,107.927z M199.012,163.426c4.8-2.5,5.6-8.199,1.6-12.1c-3-3.1-6.6-3.2-10.1-0.2
			C183.611,157.027,190.911,167.527,199.012,163.426z"/>
		<path fill="#167A45" d="M165.812,198.626c2.3,1.2,5.6,2.2,7.3,2.2c4.3,0,10.2-3.2,13.4-7.4c1.8-2.399,3.5-3.6,5.199-3.6
			c2.801,0,6.4,3.2,6.4,5.7c0,4.6-8.7,13.5-15.9,16.3c-5.3,2.1-14.8,1.7-20.3-0.9c-5-2.399-12.8-10.1-12.8-12.6c0-1-1-1.5-3.3-1.5
			c-4.6,0-7-2.1-10.1-8.5c-3.2-6.8-3.2-8-0.4-9.9c1.8-1.3,5.4-1.6,18.4-1.6c14.4,0,16.4,0.2,18.5,1.9l2.4,1.899l-1.9,5.601
			c-2.1,6.199-4,8.3-8.199,9.5l-2.9,0.8L165.812,198.626z"/>
		<path fill="#167A45" d="M106.411,119.527c7.8,4,13.3,15.1,14.5,29.899c1.1,11.801-0.1,18.301-4.3,24.9c-5.8,9.1-14.9,14-26,13.9
			c-8.9-0.101-14.9-2.9-21-9.601c-6.3-7-8.7-14.1-8.7-25.3c0-17.5,7.5-28.6,22.9-33.5
			C91.211,117.427,102.111,117.227,106.411,119.527z M106.411,171.027c2.2-2.4,2.2-7.5,0-9.4c-1-0.8-2.5-1.7-3.3-2
			c-1.8-0.7-6.2,0.9-7.2,2.5c-1.4,2.2-0.8,7.4,1,9C99.411,173.327,104.411,173.227,106.411,171.027z"/>
	</g>
	<g>
	</g>
</g>
</svg>
